<svg xmlns="http://www.w3.org/2000/svg" width="293.87389" height="609.15204" viewBox="0 0 293.87389 609.15204" xmlns:xlink="http://www.w3.org/1999/xlink"><path d="m246.71663,609.15198H47.15726c-26.00249,0-47.15726-21.15448-47.15726-47.15729V47.15726C0,21.1545,21.15479,0,47.15726,0h199.55937c26.00275,0,47.15726,21.1545,47.15726,47.15726v514.83749c0,26.00275-21.15451,47.15729-47.15726,47.15729v-.00006Z" fill="#2f2e41" stroke-width="0"/><path d="m246.92003,596.42517H46.9539c-19.51083,0-35.38405-15.87347-35.38405-35.38403V45.21841c0-19.51054,15.87321-35.38405,35.38405-35.38405h199.96613c19.51053,0,35.38406,15.8735,35.38406,35.38405v515.82267c0,19.51056-15.8735,35.38403-35.38403,35.38403l-.00003.00006Z" fill="#fff" stroke-width="0"/><path d="m178.17552,43.38689h-63.63411c-7.33652,0-13.30531-5.96852-13.30531-13.30531s5.9688-13.30531,13.30531-13.30531h63.63411c7.33679,0,13.3053,5.96852,13.3053,13.30531s-5.96851,13.30531-13.3053,13.30531Z" fill="#2f2e41" stroke-width="0"/><line x1="56.819" y1="144.0567" x2="125.44164" y2="144.0567" fill="none" stroke="#090814" stroke-miterlimit="10" stroke-width="2"/><line x1="56.819" y1="170.06599" x2="201.17058" y2="170.06599" fill="none" stroke="#090814" stroke-miterlimit="10" stroke-width="2"/><line x1="56.819" y1="158.36182" x2="263.59285" y2="158.36182" fill="none" stroke="#090814" stroke-miterlimit="10" stroke-width="2"/><circle cx="41.21342" cy="150.55904" r="11.70418" fill="#7e56c2" stroke-width="0"/><line x1="56.819" y1="221.0567" x2="125.44164" y2="221.0567" fill="none" stroke="#090814" stroke-miterlimit="10" stroke-width="2"/><line x1="56.819" y1="247.06599" x2="201.17058" y2="247.06599" fill="none" stroke="#090814" stroke-miterlimit="10" stroke-width="2"/><line x1="56.819" y1="235.36182" x2="263.59285" y2="235.36182" fill="none" stroke="#090814" stroke-miterlimit="10" stroke-width="2"/><circle cx="41.21342" cy="227.55904" r="11.70418" fill="#7e56c2" stroke-width="0"/><line x1="56.819" y1="298.0567" x2="125.44164" y2="298.0567" fill="none" stroke="#090814" stroke-miterlimit="10" stroke-width="2"/><line x1="56.819" y1="324.06598" x2="201.17058" y2="324.06598" fill="none" stroke="#090814" stroke-miterlimit="10" stroke-width="2"/><line x1="56.819" y1="312.36182" x2="263.59285" y2="312.36182" fill="none" stroke="#090814" stroke-miterlimit="10" stroke-width="2"/><circle cx="41.21342" cy="304.55902" r="11.70419" fill="#7e56c2" stroke-width="0"/></svg>